<svg width="25" height="32" viewBox="0 0 39 50" fill="none" xmlns="http://www.w3.org/2000/svg">
<g clip-path="url(#clip0)">
<path fill-rule="evenodd" clip-rule="evenodd" d="M31.1528 24.8612L34.4445 24.6806C34.3653 23.9555 34.1584 23.2502 33.8334 22.5973L31.0903 22.4653C31.1886 23.26 31.2095 24.0624 31.1528 24.8612Z" fill="#F5F5F9"/>
<path fill-rule="evenodd" clip-rule="evenodd" d="M18.8541 15.4861C17.7103 15.5895 16.5754 15.7751 15.4583 16.0416C15.8124 16.2778 17.0694 17.0833 17.9305 17.6319L20.743 15.9722C20.1595 15.6662 19.5128 15.4998 18.8541 15.4861Z" fill="#F5F5F9"/>
<path fill-rule="evenodd" clip-rule="evenodd" d="M8.56255 36.8055H7.09033V40.2778H8.25005C9.58339 40.2778 10.4167 39.5833 10.4167 38.4305C10.4167 37.1667 9.78478 36.8055 8.56255 36.8055Z" fill="#F5F5F9"/>
<path fill-rule="evenodd" clip-rule="evenodd" d="M16.3818 11.7361C16.7015 11.8814 17.0526 11.9435 17.4027 11.9167C17.6214 11.8973 17.8334 11.8308 18.024 11.7217C18.2146 11.6126 18.3793 11.4635 18.5068 11.2847C18.1464 11.1498 17.755 11.1206 17.3785 11.2006C17.0021 11.2806 16.6563 11.4664 16.3818 11.7361Z" fill="#F5F5F9"/>
<path fill-rule="evenodd" clip-rule="evenodd" d="M19.1458 40.6041H17.8611V44.4444H19.2083C20.7014 44.4444 21.5833 43.868 21.5833 42.4375C21.5833 41.125 20.9097 40.6041 19.1458 40.6041Z" fill="#F5F5F9"/>
<path fill-rule="evenodd" clip-rule="evenodd" d="M20.8889 38.1944C20.8889 37.0555 20.1944 36.8055 19.0972 36.8055H17.8611V39.7222H18.8125C19.9166 39.7292 20.8889 39.3958 20.8889 38.1944Z" fill="#F5F5F9"/>
<path fill-rule="evenodd" clip-rule="evenodd" d="M34.4584 26.0555L31.0348 25.8611C30.895 26.7082 30.6621 27.5373 30.3403 28.3333L34.0209 27.875C34.2686 27.2976 34.4165 26.6824 34.4584 26.0555Z" fill="#F5F5F9"/>
<path fill-rule="evenodd" clip-rule="evenodd" d="M0.0625 0.0625V43.75C0.0625 45.3958 0.756944 46.3472 2.04861 46.8542C7.47033 48.8556 13.2068 49.8693 18.9861 49.8472C24.7631 49.8686 30.4972 48.8549 35.9167 46.8542C37.2361 46.3472 37.9097 45.3958 37.9097 43.75V0.0625H0.0625ZM2.20833 19.9931C2.21943 19.2098 2.44263 18.4443 2.85417 17.7778L3.35417 18.1042C3.1704 18.6497 3.08344 19.2231 3.09722 19.7986C3.24306 21.9444 4.97222 23.3958 10.2083 26.6667C15.7639 30.1389 17.3194 32.2222 17.7917 35H17.5C16.2986 32.3472 13.8472 30.8681 11.0694 29.2847V31.4236H10.7778C9.84129 29.3377 8.37037 27.5362 6.51389 26.2014C4.60417 24.7708 3.83333 24.0556 3.09722 22.9167C2.51292 22.054 2.20307 21.0349 2.20833 19.9931ZM10.9653 45.3403L7.88889 41.1736H7.09722V45.3403H4.91667V37.9861C4.95164 37.6915 4.92726 37.3928 4.84496 37.1078C4.76267 36.8227 4.62412 36.557 4.4375 36.3264C4.27943 36.1788 4.09269 36.0654 3.88889 35.9931V35.9167H9.13194C11.6736 35.9167 12.6042 36.7708 12.6042 38.3958C12.6042 39.7847 11.5694 40.5347 10.1736 40.9097L13.6458 45.3403H10.9653ZM19.8611 45.3403H15.6944V37.8125C15.7372 37.2723 15.5678 36.7368 15.2222 36.3194C15.0644 36.1732 14.8774 36.062 14.6736 35.9931V35.9167H19.7014C22.6806 35.9167 23.1111 37.0278 23.1111 38.0417C23.0969 38.5468 22.8997 39.0296 22.556 39.4001C22.2123 39.7706 21.7457 40.0035 21.2431 40.0556C22.5417 40.1458 23.8125 40.8333 23.8125 42.4653C23.8125 44.4444 22.1528 45.3403 19.8611 45.3403ZM33.9722 44.7708C33.9722 44.7708 33.0903 45.4653 30.8472 45.4653C28.4722 45.4861 25.6944 44.5 25.6944 40.6944C25.6944 37.3125 27.9861 35.7708 31.0556 35.7708C32.0526 35.6963 33.0501 35.9083 33.9306 36.3819L33.4583 37.9931C33.4583 37.9931 33.3889 37.9931 33.3681 37.9931C33.1959 37.6675 32.9297 37.4013 32.6042 37.2292C32.075 36.934 31.4732 36.7944 30.8681 36.8264C29.1806 36.8264 27.9236 37.7708 27.9653 40.6597C28.0069 43.7917 30.0486 44.4306 31.4375 44.4306C32.3305 44.4877 33.2145 44.2242 33.9306 43.6875L33.9722 44.7708ZM35.0347 32.6389L34.3403 34.9861H34.0278C34.0278 33.0278 32.2361 32.4931 30.3542 32.4931H24.4514C24.6635 33.5325 24.7081 34.5992 24.5833 35.6528H24.3056C23.7639 31.2569 21.2778 29.0833 17.8056 26.75V28.75H17.5C16.5833 26.6667 14.5486 24.75 12.6389 23.3819C12.1319 23.0139 11.6042 22.6319 11.0764 22.2639V24.4167H10.7847C9.97222 22.2778 8.49306 20.6875 6.38889 18.7847C4.11111 16.7361 3.19444 15.5069 2.65972 14.1042C2.36502 13.309 2.22136 12.4659 2.23611 11.6181C2.20005 10.8828 2.35432 10.1507 2.68401 9.49259C3.01369 8.83444 3.50763 8.2725 4.11806 7.86111V8.67361C3.59658 9.3896 3.31684 10.2531 3.31944 11.1389C3.31953 12.0158 3.52904 12.8801 3.93056 13.6597C5.20833 16.0972 9.48611 19.0903 12.2639 20.9236C20.7847 26.6458 22.4861 27.6389 23.9028 30.6458C24.0918 31.0708 24.2406 31.5126 24.3472 31.9653L30.8681 30.9653C31.0278 30.9653 31.3542 30.9028 31.5625 30.8889C32.3205 30.4028 32.9667 29.7614 33.4583 29.0069L30.1944 28.7569C30.0484 29.0797 29.8862 29.395 29.7083 29.7014H29.4444C29.5347 29.3681 29.6111 29.0069 29.6736 28.7153L28.8403 28.6528V28.4792L29.75 28.3681C29.9067 27.5035 29.9972 26.6283 30.0208 25.75L25.9028 25.5208C25.9028 25.9097 25.9028 26.3056 25.9028 26.7014H25.6389C25.5486 26.2986 25.4792 25.8958 25.4236 25.4861L24.5278 25.4375V25.1597L25.3819 25.1181C25.266 24.1574 25.2219 23.1894 25.25 22.2222L22.8472 22.1111C22.9696 22.334 23.0741 22.5662 23.1597 22.8056C23.566 24.0781 23.6424 25.4329 23.3819 26.7431H23.0903C23.0227 25.8172 22.8095 24.9079 22.4583 24.0486C21.7639 22.4792 20.2986 21.0903 17.7917 19.4861V21.4861H17.5C16.6667 18.8542 14.5972 17.3889 11.5139 15.8056C8.97222 14.4375 8.1875 12.8611 8.33333 10.4167L9.19444 10.9236C9.24439 11.8945 9.66602 12.8089 10.3719 13.4774C11.0779 14.1458 12.0139 14.517 12.9861 14.5139C14.0157 14.4965 15.0412 14.3802 16.0486 14.1667C17.4375 13.8819 18.7569 13.6389 19.8472 14.0278V12.6806H18.9931C18.4639 13.0788 17.8147 13.2845 17.1528 13.2639C16.7835 13.2916 16.4126 13.2428 16.063 13.1208C15.7134 12.9987 15.3928 12.8058 15.121 12.5543C14.8493 12.3028 14.6323 11.998 14.4837 11.6588C14.335 11.3197 14.2578 10.9536 14.2569 10.5833C14.2569 8.74306 15.8125 8.45139 17.0833 8.45139C17.7778 8.45139 18.8889 8.45139 19.2708 8.40278C19.4985 8.42021 19.7243 8.35073 19.9028 8.20833C20.031 8.07977 20.1097 7.91007 20.125 7.72917C20.1552 7.44543 20.1598 7.15956 20.1389 6.875V5.55556H14.2847V7.88194L12.0625 7.03472V6.45833H13.125V5.55556H9.15972V3.59722H7.80555C7.39717 3.58929 7.00152 3.73949 6.70128 4.01643C6.40104 4.29338 6.21945 4.67564 6.19444 5.08333C6.13889 6.02778 6.5625 6.81944 7.52778 6.81944H7.70139V7.94444H7.52778C7.13514 7.95389 6.74466 7.88375 6.37986 7.73826C6.01505 7.59276 5.68348 7.37492 5.40511 7.09785C5.12675 6.82078 4.90736 6.49023 4.76016 6.12611C4.61296 5.76199 4.541 5.37184 4.54861 4.97917C4.56115 4.55688 4.65714 4.14125 4.83106 3.75624C5.00498 3.37122 5.25339 3.02444 5.56196 2.73588C5.87053 2.44732 6.23317 2.22269 6.62896 2.07494C7.02475 1.92719 7.44588 1.85923 7.86805 1.875H10.7361V3.80556H21.8889V6.65972C21.8917 7.17445 21.8685 7.689 21.8194 8.20139C21.7993 8.44909 21.727 8.68973 21.6073 8.90755C21.4876 9.12536 21.3233 9.31542 21.125 9.46528C20.6151 9.76175 20.0241 9.88823 19.4375 9.82639C18.7431 9.82639 18.0972 9.82639 17.4306 9.75694C16.1597 9.68056 15.7986 10.1667 15.75 10.625C15.7361 10.7171 15.7361 10.8107 15.75 10.9028C16.0771 10.6308 16.4665 10.4441 16.8833 10.3593C17.3002 10.2745 17.7315 10.2942 18.1389 10.4167C19.8264 10.9514 20.3056 10.9931 21.1806 10.3056L21.2708 10.5C21.1332 10.7117 20.9592 10.8974 20.7569 11.0486H21.5764V15.4514L24.1042 13.9375H31.2014L34.6736 15.7639C34.8593 15.8408 35.0214 15.9654 35.1434 16.1252C35.2654 16.285 35.3429 16.4742 35.3681 16.6736C35.4157 17.0357 35.3451 17.4035 35.1667 17.7222C35.0625 17.8958 34.2431 19.2292 33.8125 19.9444C34.5255 20.7171 35.0714 21.6286 35.4159 22.6219C35.7605 23.6152 35.8962 24.669 35.8148 25.7172C35.7333 26.7654 35.4363 27.7855 34.9424 28.7136C34.4485 29.6418 33.7683 30.458 32.9444 31.1111C33.7963 31.3646 34.5346 31.9042 35.0347 32.6389Z" fill="#F5F5F9"/>
<path fill-rule="evenodd" clip-rule="evenodd" d="M32.9028 21.1806C32.2056 20.3776 31.3205 19.7597 30.3264 19.382C30.5592 20.0043 30.7472 20.6425 30.8889 21.2917L32.9028 21.1806Z" fill="#F5F5F9"/>
<path fill-rule="evenodd" clip-rule="evenodd" d="M22.9514 21.7223L25.2917 21.6042C25.3409 20.9035 25.4407 20.2072 25.5903 19.5209C24.5184 19.9875 23.6027 20.7514 22.9514 21.7223Z" fill="#F5F5F9"/>
<path fill-rule="evenodd" clip-rule="evenodd" d="M28.0277 18.9584C27.7953 18.9628 27.5634 18.9814 27.3332 19.0139C27.0061 19.834 26.7301 20.6736 26.5068 21.5278L29.4096 21.3681C29.1862 20.5374 28.8718 19.734 28.4721 18.9723L28.0277 18.9584Z" fill="#F5F5F9"/>
<path fill-rule="evenodd" clip-rule="evenodd" d="M30.8749 17.2639L30.2707 16.4583L30.3679 16.2778L32.0693 17.1944L31.6943 18.3125C31.9927 18.4666 32.2804 18.6406 32.5554 18.8333L33.6527 17.0347L30.8124 15.5486H24.5624L19.4443 18.6111C20.3441 19.2048 21.1694 19.9043 21.9027 20.6944C22.8414 19.3675 24.1762 18.3719 25.7157 17.8504C27.2551 17.3289 28.9202 17.3083 30.4721 17.7916L30.8749 17.2639Z" fill="#F5F5F9"/>
<path fill-rule="evenodd" clip-rule="evenodd" d="M26.3403 22.2222C26.1239 23.1784 25.9731 24.1482 25.8889 25.1249L29.9722 24.9097C29.9437 24.0575 29.8415 23.2095 29.6667 22.3749L26.3403 22.2222Z" fill="#F5F5F9"/>
</g>
<defs>
<clipPath id="clip0">
<rect width="38.1944" height="50" fill="white"/>
</clipPath>
</defs>
</svg>
