<?xml version="1.0" encoding="utf-8"?>
<!-- Generator: Adobe Illustrator 25.3.1, SVG Export Plug-In . SVG Version: 6.00 Build 0)  -->
<svg version="1.1" id="Logo" xmlns="http://www.w3.org/2000/svg" xmlns:xlink="http://www.w3.org/1999/xlink" x="0px" y="0px"
	 width="110px" height="32px" viewBox="0 0 1165.2480469 246.2266693"
	 style="enable-background:new 0 0 1165.2480469 246.2266693;" xml:space="preserve">
<style type="text/css">
	.st0{fill:#FFFFFF;}
</style>
<path class="st0" d="M295.3959656,111.0127335h-21.1729431v-3.115387c7.5162659-1.2675247,8.6121521-3.2873688,8.6121521-11.0481644
	V64.0398178c0-3.1244164-1.5122681-4.6363792-8.6121521-4.8898468v-3.6315422h20.0770569l15.3496094,42.3363457h0.6702271
	L325.59729,55.5184288h20.0679321v3.6315422c-7.0909424,0.2534676-8.8566284,1.014061-8.8566284,3.6305962v40.9783058
	c0,2.6174774,1.765686,3.3778839,8.8566284,3.6313477v3.6225128h-24.713623v-3.6225128
	c6.5835876-0.2534637,7.3352356-0.8418808,7.3352356-3.6313477V62.5270996h-0.5795288l-18.0576172,48.4856339h-3.3777466
	l-18.2928467-48.4856339h-0.5977478v34.3220825c0,7.7607956,0.5977478,9.6176758,8.0146179,11.0481644V111.0127335z
	 M346.9437256,92.916153h-0.0127563v-1.1312943h0.0114746c0.2135315-11.302948,7.4876709-19.8917007,18.3003845-19.8917007
	c11.9624939,0,16.4358215,9.7706604,15.765686,19.306488h-25.8988342v0.2534637
	c0,8.8561478,4.3102722,15.5936584,12.5691833,15.5936584c4.7358704,0,8.6026306-2.8707581,11.9804993-6.9909821
	l2.1008606,2.1011353c-3.1150513,5.2340164-8.0143127,9.7887268-16.517395,9.7887268
	C353.6467285,111.9456482,347.1820679,103.7390747,346.9437256,92.916153z M355.2000732,88.1659317l17.7037659-0.4256516
	c0.3532104-7.0000076-2.2729797-12.5597534-8.2676392-12.5597534
	C359.5014343,75.1805267,355.9517212,78.8020935,355.2000732,88.1659317z M402.9772644,107.4724197
	c-4.2107849-0.0814819-4.8082275-0.9235535-4.8082275-2.9524307V80.8217468
	c2.4448853-1.5119629,4.889801-3.1151962,8.6841125-3.1151962c4.8900757,0,7.5886536,2.0286865,7.5886536,9.0198593v17.7935791
	c0,2.0288773-0.6700745,2.8709488-4.8808899,2.9524307v3.5406494h18.1290894v-3.5406494
	c-4.8988953-0.0814819-5.6506348-0.9235535-5.6506348-2.9524307V84.127182c0-0.932579-0.0906067-1.7754059-0.1720886-2.544838
	c3.3778076-2.3638229,6.2303467-3.8757935,9.1914673-3.8757935c4.8992615,0,7.2444153,2.0286865,7.2444153,9.0198593v17.7935791
	c0,2.0288773-0.6519165,2.8709488-4.8809509,2.9524307v3.5406494H452.04953v-3.5406494
	c-4.8809204-0.0814819-6.1485901-0.9235535-6.1485901-2.9524307V83.6110306c0-7.588623-3.6312866-11.7178726-9.4449768-11.7178726
	c-5.3065491,0-10.205719,2.6980133-15.1862793,7.0000076c-1.34021-4.3834763-4.7090149-7.0000076-9.0193176-7.0000076
	c-5.5602722,0-9.7801819,2.9516678-14.2443848,6.0674286v-5.8139648l-13.583374,0.3351364v3.5406494
	c4.8901062,0.0814819,6.1485901,1.6026688,6.1485901,4.1292572v24.3683243c0,2.0288773-1.2584839,2.8709488-6.1485901,2.9524307
	v3.5406494h18.554657V107.4724197z M453.6343994,92.0417175c0-11.7178726,7.5884399-20.1485596,19.1434326-20.1485596
	c11.8901062,0,19.0620728,8.0955505,19.0620728,19.8134232c0,11.7995377-7.5975037,20.2390671-19.0620728,20.2390671
	C460.7156982,111.9456482,453.6343994,103.8500977,453.6343994,92.0417175z M462.0740662,91.8787613
	c0,11.301445,4.3014526,16.4445724,11.0389709,16.4445724c6.5741577,0,10.2961121-5.1431274,10.2961121-16.4445724
	s-4.3014526-16.3632889-11.0569153-16.3632889C465.6965332,75.5154724,462.0740662,80.5773087,462.0740662,91.8787613z
	 M519.2059326,71.893158c-4.3920898,0-8.0142822,3.114624-10.9574585,6.8280182v-6.5745544l-13.5834045,0.3351364v3.5406494
	c4.8900757,0.0814819,6.1489258,1.6026688,6.1489258,4.1292572v24.3683243c0,2.0288773-1.2588501,2.8709488-6.1489258,2.9524307
	v3.5406494h20.8280334v-3.5406494c-5.5690918-0.0814819-7.0904236-0.9235535-7.0904236-2.9524307V81.8358078
	c1.7838745-2.1910782,4.219635-4.7178574,8.0231018-4.5549011c-0.0906372,0.5161591-0.1721191,1.0238495-0.1721191,1.4402695
	c0,3.0331573,2.2821045,4.4734268,4.8085327,4.4734268c2.6170654,0,4.5460205-2.2913742,4.5460205-4.9811096
	C525.6082153,74.8448257,523.5073242,71.893158,519.2059326,71.893158z M548.5278931,107.4724197
	c-4.9807129-0.0814819-6.166748-0.9235535-6.166748-2.9524307V72.1466217l-13.6561279,0.3351364v3.5406494
	c4.8810425,0.0814819,6.0674438,1.6026688,6.0674438,4.1292572v24.3683243c0,2.0288773-1.2588501,2.8709488-6.1578369,2.9524307
	v3.5406494h19.913269V107.4724197z M538.3945312,62.9547768c3.0427856,0,5.0620728-2.1186333,5.0620728-5.2338257
	c0-3.1242256-2.0192871-5.2247963-5.0620728-5.2247963c-3.024353,0-5.0527954,2.2725601-5.0527954,5.3967857
	C533.3417358,61.0081329,535.3701782,62.9547768,538.3945312,62.9547768z M588.5626221,106.9652939l0.3348999,2.7887115
	c-3.0335083,1.0961075-4.8898315,1.5942001-7.335022,1.5942001c-4.4733276,0-5.7412109-1.6847076-6.1577148-6.4840469h-0.5795288
	c-3.3778076,3.7943115-7.4347534,6.6650696-12.4060669,6.6650696c-7.081604,0-10.4592285-4.0568085-10.4592285-8.8561478
	c0-3.3778839,1.6029053-6.837059,5.1435547-8.7754211c6.411438-3.5400848,16.4450684-4.9803619,17.7217407-5.9853897v-2.354599
	c0-7.5161667-2.1190796-10.1327057-7.5977783-10.1327057c-2.7074585,0-4.2196655,0.5974426-5.659729,1.8559418
	c0.6792603,1.4402695,0.9417725,2.7894669,0.9417725,3.9753342c0,2.517746-1.6116943,4.6273422-4.4733276,4.6273422
	c-2.9520264,0-4.6455078-2.182045-4.6455078-4.6273422c0-5.5778122,6.9273682-9.3630829,15.0140381-9.3630829
	c8.7660522,0,14.0001221,3.9572601,14.0001221,12.0528183v18.3921585
	C582.4048462,106.467392,582.9934692,107.6444092,588.5626221,106.9652939z M574.8252563,91.199646
	c-11.989624,2.6980133-14.3441772,4.4732361-14.3441772,9.5352554c0,3.0246887,1.593811,5.7324905,5.9859009,5.7324905
	c3.3775635,0,6.4837646-2.5358124,8.3582764-5.1531067V91.199646z M597.6090698,60.2469788v44.2730103
	c0,2.0288773-1.3491821,2.8709488-6.2392578,2.9524307v3.5406494h20.0672607v-3.5406494
	c-4.9716797-0.0814819-6.2393188-0.9235535-6.2393188-2.9524307V52.2426872l-14.081665,0.3349457v3.5408401
	C596.0061646,56.199955,597.6090698,57.7209511,597.6090698,60.2469788z M638.2724609,109.842865
	c3.2054443,1.3399734,7.5068359,2.5169907,12.0620117,2.5169907c14.0089722,0,19.1525269-9.951683,19.1525269-18.2926178
	c0-10.4586182-8.3492432-13.16642-16.0374146-15.7648926c-9.0102539-3.0429382-13.3209229-5.4065704-13.3209229-10.8848343
	c0-5.5697136,4.2199707-8.9383774,9.6260376-8.9383774c6.5744629,0,11.0478516,3.8757896,13.8280029,11.5458832h3.2871704V53.752243
	h-2.3545532l-2.8795776,2.5448456c-2.6986084-1.0238457-5.6414795-2.1193848-10.3685303-2.1193848
	c-10.4592285,0-18.9714966,6.402565-18.9714966,16.9524536c0,10.3682938,8.4216919,12.9041061,16.100708,15.5938416
	c10.2148438,3.6311646,14.1720581,6.0847473,14.1720581,11.9803772c0,4.3827209-3.0336304,9.3540497-10.8757324,9.3540497
	c-7.0090942,0-12.659729-3.7037964-17.1242676-13.4925308h-3.2869263v18.1379395h2.5355225L638.2724609,109.842865z
	 M678.6602783,60.2469788v44.2730103c0,2.0288773-1.3494873,2.8709488-6.2392578,2.9524307v3.5406494h20.0760498v-3.5406494
	c-4.9804688-0.0814819-6.2483521-0.9235535-6.2483521-2.9524307V52.2426872l-14.0904541,0.3349457v3.5408401
	C677.057373,56.199955,678.6602783,57.7209511,678.6602783,60.2469788z M713.1168213,111.9456482
	c-12.0621338,0-19.1345825-8.0955505-19.1345825-19.9039307c0-11.7178726,7.5796509-20.1485596,19.1345825-20.1485596
	c11.8809814,0,19.071167,8.0955505,19.071167,19.8134232C732.1879883,103.5061188,724.5993042,111.9456482,713.1168213,111.9456482z
	 M713.4608154,108.3233337c6.5745239,0,10.2872925-5.1431274,10.2872925-16.4445724s-4.3014526-16.3632889-11.0569458-16.3632889
	c-6.664856,0-10.2781372,5.0618362-10.2781372,16.3632889S706.7144165,108.3233337,713.4608154,108.3233337z
	 M772.9381104,106.9652939l0.3531494,2.7887115c-3.0608521,1.0961075-4.8991699,1.5942001-7.3531494,1.5942001
	c-4.4733887,0-5.7321777-1.6847076-6.1486816-6.4840469h-0.588562c-3.3687744,3.7943115-7.416626,6.6650696-12.3972778,6.6650696
	c-7.0812988,0-10.4592285-4.0568085-10.4592285-8.8561478c0-3.3778839,1.6119995-6.837059,5.1526489-8.7754211
	c6.4022217-3.5400848,16.4450073-4.9803619,17.7038574-5.9853897v-2.354599c0-7.5161667-2.1011353-10.1327057-7.5978394-10.1327057
	c-2.6894531,0-4.2017212,0.5974426-5.6505737,1.8559418c0.6791992,1.4402695,0.9326172,2.7894669,0.9326172,3.9753342
	c0,2.517746-1.6028442,4.6273422-4.4644775,4.6273422c-2.9611206,0-4.6452637-2.182045-4.6452637-4.6273422
	c0-5.5778122,6.9182129-9.3630829,15.0140991-9.3630829c8.7568359,0,13.9907227,3.9572601,13.9907227,12.0528183v18.3921585
	C766.7801514,106.467392,767.3870239,107.6444092,772.9381104,106.9652939z M759.2008667,91.199646
	c-11.9716797,2.6980133-14.335083,4.4732361-14.335083,9.5352554c0,3.0246887,1.59375,5.7324905,5.9858398,5.7324905
	c3.3775635,0,6.4926758-2.5358124,8.3492432-5.1531067V91.199646z M814.1408691,104.519989V83.6110306
	c0-7.588623-3.9662476-11.7178726-9.7798462-11.7178726c-5.569458,0-10.5407104,2.9516678-15.0053101,6.0674286v-5.8139648
	l-13.6016235,0.3351364v3.5406494c4.9083862,0.0814819,6.1668701,1.6026688,6.1668701,4.1292572v24.3683243
	c0,2.0288773-1.2584839,2.8709488-6.1668701,2.9524307v3.5406494h19.0712891v-3.5406494
	c-4.2199707-0.0814819-5.3157349-0.9235535-5.3157349-2.9524307V80.8217468
	c2.4448853-1.5119629,5.741333-3.1151962,9.5356445-3.1151962c4.8898315,0,7.5159912,1.938179,7.5159912,8.9376297v17.8758087
	c0,2.0288773-1.0957031,2.8709488-5.4060059,2.9524307v3.5406494h19.1433716v-3.5406494
	C815.3181763,107.3909378,814.1408691,106.5488663,814.1408691,104.519989z M881.1084595,100.3085403l-16.3729858-22.268692
	l11.229248-10.9576569c6.0584717-5.9131317,8.6756592-7.5067635,14.8244629-8.4393463v-3.1244164h-21.8335571v3.286808
	c6.4928589,0.7701912,6.746521,3.0427475,2.5264893,7.2536697l-18.1300659,18.3112488V62.7805672
	c0-2.7796822,0.5071411-3.3771286,8.0145874-3.6305962v-3.6315422h-25.3746338v3.6315422
	c7.0726929,0.2534676,8.8477783,1.014061,8.8477783,3.6305962v40.9783058c0,2.6174774-1.7750854,3.3778839-8.8477783,3.6313477
	v3.6225128h24.3694458v-3.6225128c-6.5022583-0.2534637-7.0093994-0.8418808-7.0093994-3.6313477V89.0881958l5.904541-5.7411346
	l13.0767212,18.2297668c2.8616943,3.8752213,1.59375,5.3064575-4.3919678,6.0670547v3.3688507h24.5413818v-3.4503326
	C885.5821533,106.4668579,884.2963257,104.5194626,881.1084595,100.3085403z M976.5935059,107.0467682
	c-3.5497437,0-5.0620117-1.9381714-5.0620117-6.5653305V76.6110153h11.9713135v-4.1294479h-11.9713135V58.3910332
	l-7.4164429,3.0427475v11.0477867h-20.6328125V58.3910332l-7.4164429,3.0427475v10.8757973l-7.0905151,1.5119705v2.7894669
	h6.9094238v24.7939682c0,6.5743713,3.2147827,10.5406647,9.6259155,10.5406647
	c5.3881836,0,8.1682129-1.9374161,11.2924194-7.5884247l-2.2729492-1.7746582
	c-1.9378052,2.7070541-3.6312866,4.4642029-5.9946899,4.4642029c-3.5497437,0-5.0531616-1.9381714-5.0531616-6.5653305V76.6110153
	h20.4517822v24.7939682c0,6.5743713,3.2144775,10.5406647,9.6167603,10.5406647
	c5.3972778,0,8.1862183-1.9374161,11.3015747-7.5884247l-2.2820435-1.7746582
	C980.6415405,105.2896194,978.9480591,107.0467682,976.5935059,107.0467682z M925.6156006,100.0557861l2.1100464,2.1011353
	c-3.1151123,5.2340164-8.0322266,9.7887268-16.5354614,9.7887268c-11.5753784,0-18.038269-8.1896362-18.2892456-18.9960022
	h-0.0139771v-1.1311035h0.0114746c0.1994019-11.3197021,7.4683838-19.9253845,18.291748-19.9253845
	c11.9805298,0,16.4447021,9.7706604,15.7749023,19.306488H901.065918v0.2534637
	c0,8.8561478,4.3015137,15.5936584,12.5692139,15.5936584C918.3530884,107.0467682,922.2379761,104.1760101,925.6156006,100.0557861
	z M901.1566162,88.1659317l17.7035522-0.4256516c0.3440552-7.0000076-2.263916-12.5597534-8.2677002-12.5597534
	C905.4580688,75.1805267,901.9171143,78.8020935,901.1566162,88.1659317z M1019.5442505,100.0557861l2.1099854,2.1011353
	c-3.1151123,5.2340164-8.0234375,9.7887268-16.5357056,9.7887268c-11.8082886,0-18.3012695-8.5211945-18.3012695-19.6504669
	c0-11.5549088,7.3349609-20.4020233,18.3012695-20.4020233c11.980835,0,16.4541626,9.7706604,15.7839966,19.306488h-25.8988647
	v0.2534637c0,8.8561478,4.3012085,15.5936584,12.5600586,15.5936584
	C1012.2907715,107.0467682,1016.1663208,104.1760101,1019.5442505,100.0557861z M995.0852051,88.1659317l17.7035522-0.4256516
	c0.3439941-7.0000076-2.2730103-12.5597534-8.258606-12.5597534
	C999.3863525,75.1805267,995.8366089,78.8020935,995.0852051,88.1659317z M1048.8388672,71.893158
	c-4.3826904,0-7.9959717,3.114624-10.947998,6.8280182v-6.5745544l-13.5925293,0.3351364v3.5406494
	c4.899292,0.0814819,6.1577148,1.6026688,6.1577148,4.1292572v24.3683243c0,2.0288773-1.2584229,2.8709488-6.1577148,2.9524307
	v3.5406494h20.8459473v-3.5406494c-5.578125-0.0814819-7.081543-0.9235535-7.081543-2.9524307V81.8358078
	c1.7568359-2.1910782,4.2019043-4.7178574,8.005127-4.5549011c-0.0814209,0.5161591-0.171875,1.0238495-0.171875,1.4402695
	c0,3.0331573,2.2818604,4.4734268,4.8085938,4.4734268c2.6079102,0,4.5548096-2.2913742,4.5548096-4.9811096
	C1055.2593994,74.8448257,1053.1494141,71.893158,1048.8388672,71.893158z M1072.0032959,104.519989V72.1466217
	l-13.664917,0.3351364v3.5406494c4.8989258,0.0814819,6.0852051,1.6026688,6.0852051,4.1292572v24.3683243
	c0,2.0288773-1.2766113,2.8709488-6.1577148,2.9524307v3.5406494h19.8951416v-3.5406494
	C1073.180542,107.3909378,1072.0032959,106.5488663,1072.0032959,104.519989z M1068.0457764,62.9547768
	c3.0339355,0,5.0622559-2.1186333,5.0622559-5.2338257c0-3.1242256-2.0283203-5.2247963-5.0622559-5.2247963
	c-3.024292,0-5.0618896,2.2725601-5.0618896,5.3967857C1062.9838867,61.0081329,1065.0214844,62.9547768,1068.0457764,62.9547768z
	 M1119.3453369,104.519989V83.6110306c0-7.588623-3.9663086-11.7178726-9.7800293-11.7178726
	c-5.5601807,0-10.5314941,2.9516678-15.005127,6.0674286v-5.8139648l-13.583374,0.3351364v3.5406494
	c4.899292,0.0814819,6.157959,1.6026688,6.157959,4.1292572v24.3683243c0,2.0288773-1.258667,2.8709488-6.157959,2.9524307
	v3.5406494h19.0620117v-3.5406494c-4.2198486-0.0814819-5.3063965-0.9235535-5.3063965-2.9524307V80.8217468
	c2.4268799-1.5119629,5.7229004-3.1151962,9.5172119-3.1151962c4.8901367,0,7.5164795,1.938179,7.5164795,8.9376297v17.8758087
	c0,2.0288773-1.1048584,2.8709488-5.3972168,2.9524307v3.5406494h19.1431885v-3.5406494
	C1120.5317383,107.3909378,1119.3453369,106.5488663,1119.3453369,104.519989z M1153.3491211,74.2471924
	c3.6403809,2.1101685,6.0853271,5.7415161,6.0853271,10.6313629c0,8.1772232-6.583252,13.2390594-15.1862793,13.2390594
	c-1.7746582,0-3.4591064-0.1714249-5.0620117-0.5886002c-2.1915283,1.0872574-3.3776855,2.2733078-3.3776855,3.7037964
	c0,1.6847076,1.1861572,3.3778839,8.005249,3.3778839h3.8847656c11.1293945,0,16.1010742,2.6987686,16.1010742,9.7802582
	c0,6.7457886-8.0905762,13.9179764-21.5743408,13.9179764c-11.0568848,0-15.7711182-4.3102722-15.7711182-9.281601
	c0-3.8757858,3.7127686-7.416626,10.2963867-8.5121613v-0.597641c-4.9807129-1.1775818-6.7556152-3.2057037-6.7556152-6.5833969
	c0-2.5267792,2.263916-5.052803,5.913208-6.9096909c-4.1383057-1.9283905-6.9365234-5.6412201-6.9365234-11.2199707
	c0-8.0865173,6.5834961-13.3113098,15.2766113-13.3113098c2.3546143,0,4.7270508,0.41642,6.746582,1.1770172
	c1.8564453-3.4683914,5.3154297-6.5745544,9.6077881-6.5745544c2.9615479,0,4.6455078,1.7661819,4.6455078,4.2922134
	c0,2.1918259-1.3491211,3.7218552-3.2868652,3.7218552c-2.2005615,0-3.7310791-1.4395142-3.7310791-3.9662933
	C1156.5456543,71.1325607,1154.4541016,72.6447144,1153.3491211,74.2471924z M1140.2910156,111.4387131
	c-4.4825439,0.8511047-7.4257812,3.2057037-7.4257812,6.7375183c0,3.9753265,4.3017578,6.5918655,12.7232666,6.5918655
	c7.1719971,0,11.9804688-3.4586105,11.9804688-7.5969009c0-3.4593582-1.9377441-5.7324829-10.3775635-5.7324829H1140.2910156z
	 M1151.4927979,85.0415115c0-6.4023743-3.1964111-10.0337296-7.588623-10.0337296
	c-4.2198486,0-7.0812988,2.2731247-7.0812988,10.0337296c0,7.7696381,3.3684082,9.9524384,7.6697998,9.9524384
	C1148.6219482,94.9939499,1151.4927979,92.2951813,1151.4927979,85.0415115z M303.5819092,190.2127991
	c-10.0335693,0-19.7410583-7.8420868-19.7410583-23.3632965c0-16.3723145,8.5211487-25.1385193,18.2107239-25.1385193
	c8.2676392,0,13.329895,5.5695343,17.0427246,15.0955658h2.7798157v-19.1435242h-3.1151123l-2.5445557,3.5408325
	c-3.1060181-1.8469086-7.4980469-3.7942963-13.3117371-3.7942963c-15.9467468,0-28.6789856,12.8134003-28.6789856,29.7748871
	c0,17.1238861,11.3015137,28.4251404,27.1576538,28.4251404c12.3157043,0,19.5691528-7.9326019,23.0194702-15.9466705
	l-3.3687439-1.68396C317.5729675,185.0604553,313.108429,190.2127991,303.5819092,190.2127991z M365.0512085,190.21521
	l0.3351746,2.7796783c-3.0337524,1.0955505-4.8900757,1.6032257-7.3440247,1.6032257
	c-4.4554138,0-5.7233276-1.693161-6.1580811-6.5021057h-0.5794678c-3.3684998,3.7852783-7.425354,6.6650696-12.3970032,6.6650696
	c-7.0904846,0-10.4592285-4.0479584-10.4592285-8.8569031c0-3.3680878,1.6029053-6.8272705,5.1434937-8.765625
	c6.411499-3.5408478,16.4450989-4.9803619,17.712738-5.985199v-2.3638306c0-7.5071411-2.1099854-10.1146393-7.5884094-10.1146393
	c-2.6986084,0-4.2199402,0.5884094-5.6506042,1.8469086c0.6697998,1.4397125,0.9234924,2.7802429,0.9234924,3.9572754
	c0,2.5357971-1.6028137,4.645401-4.4644775,4.645401c-2.9519958,0-4.6455688-2.1910706-4.6455688-4.645401
	c0-5.5689697,6.9095154-9.3540497,15.0053101-9.3540497c8.7838745,0,14.0089417,3.9662933,14.0089417,12.0618439v18.3831329
	C358.8934937,189.7082672,359.4821167,190.8852844,365.0512085,190.21521z M351.3048096,174.4405365
	c-11.971405,2.6980133-14.3439636,4.4641876-14.3439636,9.5262146c0,3.0337219,1.6029053,5.7415161,5.9856262,5.7415161
	c3.3779297,0,6.5020447-2.5358124,8.3583374-5.1530914V174.4405365z M406.2585754,187.7518463v-20.8999329
	c0-7.588623-3.9844055-11.7268982-9.8072205-11.7268982c-5.5600281,0-10.5315857,2.9514771-15.0050049,6.066864v-5.8134003
	l-13.583374,0.3439789v3.5408325c4.8900757,0.0814819,6.1668701,1.5934448,6.1668701,4.1292572v24.3592987
	c0,2.0379028-1.2767944,2.8709412-6.1668701,2.9612732v3.5408325h19.0621643v-3.5408325
	c-4.2199707-0.090332-5.3157349-0.9233704-5.3157349-2.9612732v-23.6982422
	c2.4449158-1.5036926,5.741333-3.115387,9.5353394-3.115387c4.8900757,0,7.5162659,1.947403,7.5162659,8.947403v17.8662262
	c0,2.0379028-1.1048584,2.8709412-5.4062195,2.9612732v3.5408325h19.1344299v-3.5408325
	C407.4266968,190.6227875,406.2585754,189.7897491,406.2585754,187.7518463z M434.7275085,190.133728
	c-8.1679993,0-12.6504517-6.4206238-12.6504517-16.454361c0-10.7122803,4.6363831-14.9328003,10.9571838-14.9328003
	c3.2145996,0,5.9042664,1.3587952,6.9273682,2.7078094c-1.1861267,0.6700745-2.7074585,2.2733154-2.7074585,4.5456848
	c0,2.5448456,1.865387,4.3019867,4.7359009,4.3019867c2.8525085,0,4.8176575-2.5265808,4.8176575-5.651001
	c0-4.7993317-5.1617126-9.5260315-13.9365234-9.5260315c-10.5315857,0-18.8807983,8.6931763-18.8807983,20.4110565
	c0,11.2107391,6.9909363,19.6504669,18.0387573,19.6504669c8.1046143,0,12.4785156-3.7218628,16.0191345-8.8561554
	l-2.0917358-2.1193848C443.0769348,187.5074158,439.3641663,190.133728,434.7275085,190.133728z M484.0609436,183.2966766
	l2.1007996,2.1005707c-3.1149902,5.2255402-8.0139771,9.7892914-16.5353699,9.7892914
	c-11.7994995,0-18.2921753-8.5210114-18.2921753-19.6504669c0-11.5549164,7.3349915-20.4110565,18.2921753-20.4110565
	c11.9805298,0,16.4538879,9.7794952,15.7748413,19.3155212H459.511261v0.2444305
	c0,8.8561401,4.3014526,15.6117249,12.5691833,15.6117249C476.8074646,190.2966919,480.6832886,187.4259338,484.0609436,183.2966766
	z M459.5927429,171.3975983l17.7035828-0.4169922c0.3443604-6.9994507-2.2638855-12.5691681-8.2495117-12.5691681
	C463.8942871,158.411438,460.3535767,162.0427856,459.5927429,171.3975983z M513.3597412,155.1250153
	c-4.401001,0-8.0140381,3.1144409-10.9663391,6.8364868v-6.5830231l-13.583313,0.3439789v3.5408325
	c4.8900757,0.0814819,6.1579895,1.5934448,6.1579895,4.1292572v24.3592987c0,2.0379028-1.2679138,2.8709412-6.1579895,2.9612732
	v3.5408325h20.8279419v-3.5408325c-5.5602417-0.090332-7.0723877-0.9233704-7.0723877-2.9612732v-22.6751556
	c1.7567139-2.1910706,4.2107544-4.7268829,8.005127-4.5549011c-0.0815735,0.5161591-0.1630554,1.0140686-0.1630554,1.4397125
	c0,3.0337067,2.2639771,4.4642029,4.7994995,4.4642029c2.6170044,0,4.5548096-2.281601,4.5548096-4.9713287
	C519.7620239,158.0764923,517.6520996,155.1250153,513.3597412,155.1250153z M565.411377,190.2127991
	c-10.0427246,0-19.7410278-7.8420868-19.7410278-23.3632965c0-16.3723145,8.5122681-25.1385193,18.2105713-25.1385193
	c8.2588501,0,13.3209229,5.5695343,17.0336914,15.0955658h2.7889404v-19.1435242h-3.1242065l-2.5263672,3.5408325
	c-3.1151123-1.8469086-7.5160522-3.7942963-13.3208618-3.7942963c-15.9468384,0-28.6880493,12.8134003-28.6880493,29.7748871
	c0,17.1238861,11.3014526,28.4251404,27.1575317,28.4251404c12.3157959,0,19.5692139-7.9326019,23.0286255-15.9466705
	l-3.3687744-1.68396C579.3932495,185.0604553,574.9378662,190.2127991,565.411377,190.2127991z M623.3126831,183.2966766
	l2.1011353,2.1005707c-3.1242676,5.2255402-8.005188,9.7892914-16.5266113,9.7892914
	c-11.8083496,0-18.2921753-8.5210114-18.2921753-19.6504669c0-11.5549164,7.3258057-20.4110565,18.2921753-20.4110565
	c11.9625244,0,16.4541626,9.7794952,15.7748413,19.3155212h-25.8900146v0.2444305
	c0,8.8561401,4.2923584,15.6117249,12.5600586,15.6117249C616.0411987,190.2966919,619.9441528,187.4259338,623.3126831,183.2966766
	z M598.8535767,171.3975983l17.7038574-0.4169922c0.3440552-6.9994507-2.2821655-12.5691681-8.2497559-12.5691681
	C603.1459351,158.411438,599.6143799,162.0427856,598.8535767,171.3975983z M666.4379883,187.7518463v-20.8999329
	c0-7.588623-3.9482422-11.7268982-9.7709961-11.7268982c-5.5691528,0-10.5316772,2.9514771-15.0141602,6.066864v-5.8134003
	l-13.5744629,0.3439789v3.5408325c4.8901367,0.0814819,6.1488647,1.5934448,6.1488647,4.1292572v24.3592987
	c0,2.0379028-1.258728,2.8709412-6.1488647,2.9612732v3.5408325h19.0530396v-3.5408325
	c-4.2108765-0.090332-5.3066406-0.9233704-5.3066406-2.9612732v-23.6982422
	c2.4451904-1.5036926,5.7321167-3.115387,9.517395-3.115387c4.9083252,0,7.5253906,1.947403,7.5253906,8.947403v17.8662262
	c0,2.0379028-1.1048584,2.8709412-5.406311,2.9612732v3.5408325h19.1436768v-3.5408325
	C667.6332397,190.6227875,666.4379883,189.7897491,666.4379883,187.7518463z M691.3135376,190.2966919
	c-3.5498047,0-5.0620117-1.9472046-5.0620117-6.5835876v-23.8613892h11.9713745v-4.1292572h-11.9713745v-14.0816956
	l-7.4165039,3.0248718v10.8757935l-7.0812988,1.5302277v2.7800598h6.9182739v24.7849426
	c0,6.5835876,3.1876831,10.549881,9.5988159,10.549881c5.3972168,0,8.1773682-1.9472046,11.3015747-7.588623l-2.2821655-1.7744598
	C695.3615112,188.5305023,693.6680298,190.2966919,691.3135376,190.2966919z M734.2642212,183.2966766l2.1008911,2.1005707
	c-3.1150513,5.2255402-8.005188,9.7892914-16.5263062,9.7892914c-11.8085938,0-18.2924805-8.5210114-18.2924805-19.6504669
	c0-11.5549164,7.3262329-20.4110565,18.2924805-20.4110565c11.9713745,0,16.4448242,9.7794952,15.7746582,19.3155212h-25.8989258
	v0.2444305c0,8.8561401,4.3106689,15.6117249,12.5691528,15.6117249
	C727.0016479,190.2966919,730.8775635,187.4259338,734.2642212,183.2966766z M709.7961426,171.3975983l17.7125854-0.4169922
	c0.3441162-6.9994507-2.2730103-12.5691681-8.2677002-12.5691681
	C714.1063843,158.411438,710.5657349,162.0427856,709.7961426,171.3975983z M763.5614624,155.1250153
	c-4.3827515,0-8.0048828,3.1144409-10.9572144,6.8364868v-6.5830231l-13.5742798,0.3439789v3.5408325
	c4.8900757,0.0814819,6.1486816,1.5934448,6.1486816,4.1292572v24.3592987c0,2.0379028-1.258606,2.8709412-6.1486816,2.9612732
	v3.5408325h20.8277588v-3.5408325c-5.5690918-0.090332-7.0722046-0.9233704-7.0722046-2.9612732v-22.6751556
	c1.7476807-2.1910706,4.1834717-4.7268829,8.0048828-4.5549011c-0.0994873,0.5161591-0.171936,1.0140686-0.171936,1.4397125
	c0,3.0337067,2.263916,4.4642029,4.7904053,4.4642029c2.6262207,0,4.5639648-2.281601,4.5639648-4.9713287
	C769.9728394,158.0764923,767.862854,155.1250153,763.5614624,155.1250153z M191.411377,31.8734035
	C172.8807068,10.7239485,145.2746887,0,109.3637619,0C73.4515152,0,45.8468056,10.7239485,27.3147831,31.8734035
	C9.1902485,52.5592003,0,83.2565231,0,123.1133347s9.1902485,70.554512,27.3147831,91.240303
	c18.5320225,21.1494598,46.136734,31.8730316,82.0489807,31.8730316c35.9109268,0,63.5169449-10.7235718,82.0476151-31.8730316
	c18.1258545-20.685791,27.3161011-51.3834991,27.3161011-91.240303S209.5372314,52.5592003,191.411377,31.8734035z
	 M109.3637619,234.1926575c-64.8867569,0-97.3294754-37.0263062-97.3294754-111.0793228
	c0-74.0526352,32.4427185-111.0793304,97.3294754-111.0793304c64.8853836,0,97.3294296,37.0266953,97.3294296,111.0793304
	C206.6931915,197.1663513,174.2491455,234.1926575,109.3637619,234.1926575z M109.364212,36.9717941l37.3155823,37.3161011
	l-8.6286926,8.6290283l-22.5858688-22.5861511v38.4803238h26.7831497v12.2026062h-26.7831497v9.4432449h26.7831497v12.2026138
	h-26.7831497v9.4432373h26.7831497v12.2026062h-26.7831497v26.6666718H103.262207v-26.6666718H76.4790573v-12.2026062h26.7831497
	v-9.4432373H76.4790573v-12.2026138h26.7831497v-9.4432449H76.4790573V98.8110962h26.7831497V60.3317108L80.6768036,82.9169235
	l-8.6291122-8.6290283L109.364212,36.9717941z M145.6916351,206.8642426l-2.8668365,0.6539001l-2.922348-12.8152924
	l-3.0103912,0.6859283l-8.1455994,15.7331848l1.2349548,2.3726501l10.1203003-2.3075867l1.0274048,4.4996643l3.3826752-0.7702942
	l-1.0259247-4.5021973l2.8668365-0.6539001L145.6916351,206.8642426z M132.846756,209.7936249l4.7833252-9.4459991
	l1.8118591,7.9434357L132.846756,209.7936249z M121.0043335,207.7851562
	c1.674675-1.0182495,2.8511429-2.4756012,2.7089005-4.7653046l-0.0028687-0.0574493
	c-0.1971588-3.1695404-3.3684387-5.3593597-7.4779816-5.1031189c-4.1095581,0.2536469-6.9836655,2.8494873-6.7879486,5.9903107
	l0.0041733,0.0574341c0.1422501,2.2897034,1.4905167,3.5919952,3.2791901,4.3934937
	c-2.2592468,1.1122894-3.5419617,2.7555542-3.3884735,5.2201691l0.0041733,0.0574341
	c0.2197876,3.5533447,3.7120667,5.6920929,8.2041168,5.4132233c4.4907379-0.2788544,7.6943512-2.776947,7.466217-6.4451599
	l-0.0041885-0.0600586C124.8575897,210.0502319,123.3287811,208.6730194,121.0043335,207.7851562z M116.4197159,200.8800201
	c2.202301-0.1353149,3.7498932,1.0642242,3.8484726,2.6490021l0.0041885,0.0600433
	c0.1085052,1.7597046-1.3674393,3.1191711-3.480957,3.2514801c-2.1135254,0.1296997-3.7484589-1.0355072-3.8597031-2.8239136
	l-0.0028839-0.0600586C112.8316879,202.4005127,114.2187424,201.0179443,116.4197159,200.8800201z M117.3589554,215.9680176
	c-2.7009659,0.1689148-4.3731155-1.1423645-4.4773178-2.8159027l-0.0041809-0.0574493
	c-0.1168823-1.8797913,1.6568451-3.2275543,4.092804-3.3795929c2.4359741-0.1494293,4.3905945,0.9646912,4.5074844,2.8444977
	l0.0041809,0.0574341C121.5875626,214.3192596,120.0599213,215.7991028,117.3589554,215.9680176z M97.7583771,197.4168396
	c-4.0971603-0.4094849-7.3508606,1.6910858-7.6633453,4.8208771l-0.0059967,0.0576782
	c-0.2272797,2.2831116,0.8934479,3.7835388,2.5298615,4.8650665c-2.4078369,0.7330322-3.9380569,2.1486359-4.1833038,4.6047821
	l-0.0059052,0.0602722c-0.3541641,3.5413666,2.7494888,6.2141113,7.2267303,6.6610565
	c4.4772339,0.4469604,8.0414429-1.5041809,8.4062805-5.1608582l0.0059891-0.057663
	c0.2421722-2.4299164-1.0452957-4.0373535-3.1965637-5.2852631c1.8172455-0.7350159,3.2117004-1.9842682,3.4402847-4.2674103
	l0.0059891-0.0576782C104.6337967,200.4964447,101.8555374,197.8263397,97.7583771,197.4168396z M100.5710144,212.7713928
	l-0.0059891,0.0576782c-0.1690292,1.6959534-1.9159775,2.9120941-4.6081009,2.6430511
	c-2.6921234-0.2690277-4.1322556-1.8297729-3.966301-3.4994965l0.0059891-0.0576782
	c0.186821-1.8741913,2.153595-2.9170837,4.5822144-2.6761932
	C99.0075226,209.4822693,100.757843,210.8972015,100.5710144,212.7713928z M100.8302689,203.6624146l-0.0059052,0.0602875
	c-0.176239,1.7562866-1.8524017,2.8577881-3.9599228,2.648407c-2.1062164-0.2094269-3.5325241-1.6242981-3.3532867-3.4094238
	l0.0046844-0.0576324c0.1553574-1.5518036,1.7466431-2.6923981,3.9420319-2.4727631
	C99.6532516,200.6509247,100.9873962,202.0844269,100.8302689,203.6624146z M76.7051086,194.4929047l-0.1239243,3.0355988
	l3.8460312,0.093399l-4.96315,16.3256226l3.4332581,1.0429535l6.0336151-19.8437195l-2.3926849-0.7271423L76.7051086,194.4929047z"
	/>
</svg>
