<?xml version="1.0" encoding="UTF-8"?><svg widht="110" height="32" xmlns="http://www.w3.org/2000/svg" viewBox="0 0 7488.57 2096.02"><defs><style>.d{fill:none;}.e{fill:#fff;}</style></defs><g id="a"/><g id="b"><g id="c"><g><path class="e" d="M3436.01,1180.96h1282.73c-1.5,9-2.95,17.75-4.43,26.49-2.07,12.23-3.8,24.53-6.35,36.66-4.38,20.81-9.05,41.56-14.04,62.23-4.91,20.34-9.72,40.74-15.75,60.75-5.72,18.99-12.32,37.78-19.71,56.18-8.92,22.21-17.96,44.51-28.95,65.73-19.91,38.43-39.59,77.18-62.57,113.78-23.32,37.17-49.72,72.49-76.17,107.57-41.02,54.41-90.03,101.47-141.91,145.15-48.61,40.92-101.28,76.67-156.63,107.91-31.99,18.06-65.09,34.43-98.75,49.13-27.78,12.14-56.99,21.06-85.79,30.76-24.9,8.38-49.91,16.56-75.25,23.44-17.58,4.77-35.78,7.35-53.75,10.61-26.3,4.77-52.65,9.28-78.98,13.88-1.11,.19-2.23,.31-3.35,.34-58.15,1.67-116.3,4.74-174.43,4.45-32.86-.17-65.81-5.31-98.48-9.77-25.33-3.46-50.45-8.23-75.25-14.42-34.56-8.63-69.19-17.64-102.74-29.47-37.95-13.39-75.54-28.4-111.82-45.79-38.91-18.65-77.79-38.35-113.63-62.2-45.04-29.97-88.18-63.15-129.85-97.72-30.4-25.22-58.8-53.42-84.98-83.04-29.6-33.5-56.46-69.53-83.1-105.51-17.99-24.3-34.82-49.69-49.83-75.92-17.13-29.95-32.16-61.15-47.17-92.26-9.03-18.72-17.26-37.86-24.96-57.18-5.8-14.56-10.8-29.43-15.28-44.45-7.55-25.31-15.94-50.44-22.53-76.02-6.28-24.39-9.27-49.63-15.67-74-1.76-6.71-2.72-13.58-3.6-20.46-.21-1.66-.74-3.29-.89-4.96-1.83-20.5-4.41-40.98-5.3-61.52-2.02-46.65-4.53-93.34-4.21-140,.19-27.25,5.42-54.47,8.43-81.7,1.81-16.42,3.19-32.92,5.75-49.22,2.56-16.32,7.56-32.26,10.53-48.52,.81-4.41,1.85-8.77,3.07-13.08,9.72-34.16,20.06-68.14,29.59-102.35,10.39-37.27,27.08-71.84,42.9-106.95,23.78-52.78,53.85-101.73,86.12-149.45,44.76-66.2,97.86-125.49,156.66-179.15,32.73-29.87,69.98-54.76,105.03-82.11,49.94-38.97,106.25-67.03,162.8-94.42,25.39-12.3,52.27-21.6,78.72-31.62,21.96-8.32,44.07-16.35,66.5-23.26,15.46-4.77,31.58-7.34,47.38-11.02,22.79-5.32,45.44-11.24,68.39-15.83,5.5-1.1,11.06-1.92,16.63-2.56,19.94-2.31,39.94-4.93,59.98-5.75,49.87-2.05,99.77-4.49,149.65-4.32,28.17,.09,56.34,6.44,84.48,9.25,9.97,.99,19.88,2.45,29.75,4.16,28.77,5,57.9,8.78,86.14,15.96,30.18,7.68,59.41,19.06,89.32,27.93,63.47,18.81,121.36,50.03,179.86,79.93,8.56,4.37,17.02,9.24,24.58,15.1,2.29,1.78,3.3,8.79,1.69,11.48-13.78,22.98-28.4,45.45-42.57,68.19-19.67,31.57-39.16,63.24-58.73,94.87-9.2,14.86-18.47,29.68-27.56,44.61-3.24,5.32-5.89,6.26-12.23,2.92-36.34-19.1-72.44-38.88-109.95-55.44-25.52-11.26-52.93-18.61-79.97-25.9-28.53-7.69-57.76-12.72-86.46-19.83-36.45-9.03-73.5-10.02-110.68-9.89-31.34,.11-62.82-1.16-93.98,1.32-26.93,2.15-53.53,8.55-80.21,13.41-17.52,3.2-35.21,6.04-52.33,10.81-18.03,5.02-35.64,11.72-53.13,18.45-24.82,9.55-50.03,18.44-73.85,30.11-29.52,14.46-58.15,30.88-86.53,47.53-44.99,26.4-85.43,59.03-122.11,95.91-27.23,27.38-53.77,55.75-77.87,85.88-35.51,44.39-65.42,92.73-88.64,144.79-13.73,30.8-26.9,61.95-38.25,93.68-7.26,20.3-10.95,41.9-15.88,63-4.96,21.24-11.26,42.38-13.73,63.93-3.59,31.34-5.04,62.99-5.97,94.55-.85,28.89-.86,57.9,.76,86.75,1.41,25.05,7.62,49.83,10.3,74.8,.89,8.24,2.16,16.44,4.08,24.51,5.25,22,11.35,43.81,17.81,65.49,4.52,15.16,13.03,39.56,18.91,54.24,10.46,26.1,20.42,52.58,33.76,77.18,18.92,34.9,39.76,69.01,62.66,101.42,19.02,26.93,41.32,51.74,63.81,75.96,19.68,21.19,40.9,41.11,62.77,60.05,36.84,31.89,76.05,60.61,119.5,83.18,22.64,11.76,44.36,25.44,67.53,35.99,22.96,10.46,47.08,18.46,70.93,26.85,13.86,4.88,27.85,9.38,41.91,13.67,9.71,2.97,25.81,7.02,35.77,9.04,17.58,3.56,35.18,7.05,52.78,10.54,1.66,.33,4.4,.68,6.09,.79,31.08,1.94,62.14,4.56,93.24,5.47,28.92,.85,57.96,.86,86.83-.77,24.29-1.38,48.32-7.35,72.54-10.1,7.79-.88,15.55-1.95,23.24-3.44,16.77-3.25,33.65-6.68,49.99-11.65,17.41-5.3,34.54-11.63,51.51-18.25,29.43-11.47,59.57-21.62,87.69-35.77,32.17-16.19,63.76-34.28,93.22-54.94,31.41-22.04,61.77-46.25,89.43-72.81,31.61-30.34,61.32-63.04,88.97-97.05,31.42-38.64,57.84-80.94,79.28-126.24,3.65-7.71,2.04-8.95-4.27-10.19-26.45-5.2-52.96-10.08-79.36-15.51-22.09-4.55-44.06-9.69-66.07-14.59-21.97-4.89-43.99-9.55-65.88-14.77-24.92-5.95-49.62-12.84-74.59-18.52-18.57-4.22-37.54-6.67-56.14-10.8-18.09-4.01-35.83-9.62-53.92-13.67-18.2-4.08-36.73-6.66-54.93-10.7-18.04-4.01-35.79-9.29-53.79-13.51-10.48-2.46-21.26-3.59-31.77-5.96-18.42-4.15-36.72-8.83-55.09-13.22-8.51-2.03-17.01-4.12-25.59-5.81-18.3-3.61-36.75-6.52-54.95-10.57-17.64-3.93-35.01-9.05-52.56-13.42-8.49-2.12-17.1-3.82-25.68-5.54-26.03-5.2-52.13-10.11-78.11-15.53-21.68-4.52-43.28-9.48-64.86-14.5-16.03-3.73-31.96-7.89-47.93-11.85l.24-1.97Z"/><path class="e" d="M4628.93,1058.55h-47c-.25-4.58-.68-8.88-.69-13.18-.04-64.07,.24-128.14-.26-192.2-.1-12.23,3.09-17.32,15.89-15.7,10.81,1.37,26.54-3.1,31.53,2.59,6.28,7.17,2.48,23.54,3.32,35.09,.88,12.15,.42,24.35-.05,36.52-.37,9.7,3.8,14.02,13.16,13.76,9.39-.25,18.79-.06,30.01-.06v-86.77h53.55v219.95h-55.47v-87.98h-43.99v87.98Z"/><path class="e" d="M4292.31,976.8v77.92h-53.55v-210.91c4.5-.57,7.98-1.93,12.34-.29,23.78,8.95,49.79,8.25,74.2,1.2,28.68-8.28,55.7,19.81,54.63,45.39-.47,11.32-2.17,22.74-4.66,33.8-3.26,14.47-15.5,19.75-29.32,24.79,30.56,30.17,26.32,72.31,41.87,111.75h-55.55c-5.5-24.87-10.01-47.52-16.7-69.51-2.76-9.07-9.08-18.44-23.26-14.15Zm33.94-68.59c2.18-21.82-15.06-27.67-32.15-24.75-2.43,.42-5.82,4.63-5.98,7.24-.66,11.38-.58,22.83-.03,34.21,.12,2.42,2.97,6.33,5.13,6.78,16.28,3.36,34.9-1.65,33.02-23.49Z"/><path class="e" d="M3526.52,949.8c31.06,30.06,26.81,72.36,42.95,109.9-18.66,0-34.93,.44-51.13-.38-3.16-.16-7.94-4.72-8.79-8.06-4.21-16.54-8.09-33.23-10.67-50.09-2.59-16.88-10.22-25.44-25.16-24.02v81.4h-53.55v-215.6c15.96,0,29.51-.28,46.69,1.39,13.47,1.31,27.02,1.09,40.47-.39,43.36-4.77,63.79,41.58,51.88,73.69-5.75,15.51-15.93,24.53-32.68,32.17Zm-56.63-18.05c12.14,.26,24.69,4.22,32.88-7.07,7.48-10.32,8.44-22.37,.16-32.89-8.44-10.74-20.58-9.45-33.04-8v47.97Z"/><path class="e" d="M4219,1054.72h-53.73c-2.07-7.69-3.26-19.27-6.53-30.22-1.21-4.06-7.14-9.21-11.2-9.47-16.61-1.07-33.33-.45-50.64-.45-4.28,14.58-8.36,28.5-12.82,45.87h-51.56c3.77-14.96,7.41-27.63,11.25-40.23,4.21-13.83,8.6-27.62,12.93-41.41,6.07-19.33,12.34-38.6,18.21-57.99,5.57-18.41,10.75-36.95,16.06-55.44,1.94-6.76,2.71-14.15,6.04-20.12,1.79-3.22,7.75-5.33,12.02-5.69,9.72-.83,19.55-.27,29.34-.27,18.19,0,21.43,3.19,25.94,20.61,5.71,22.04,12.54,43.78,18.71,65.7,5.36,19.05,10.24,38.24,15.76,57.24,5.79,19.94,12.27,39.68,18.07,59.61,1.43,4.92,1.4,10.26,2.14,12.25Zm-73.5-84.16c-5.77-27.65-11.22-53.74-16.67-79.83l-2.67-.06c-6.77,26.39-13.53,52.78-20.49,79.89h39.83Z"/><path class="e" d="M3708.97,971.33c-17.92,0-34.96,.49-51.96-.18-10.21-.4-14.42,2.27-14.28,13.59,.46,37.11-.27,30.85,50.54,31.91,3.91,.08,7.84,.12,11.73-.21,8.28-.7,11.18,2.52,11.08,9.92-.15,10.64-.04,34.1-.04,34.1h-123.75v-216.13h122.41v39.05c-19.9,0-39.56,.27-59.21-.13-8.32-.17-11.42,4.27-12.4,11.39-.44,3.22-.14,6.55-.11,9.83,.2,25.85-2.84,22.67,22.83,22.84,14.18,.09,28.35,.02,43.15,.02v44Z"/><path class="e" d="M4018.81,926.58v43.99h-68.85v42.24c6.53,.31,13.23,.84,19.93,.91,14.71,.14,29.44-.34,44.12,.37,3.05,.15,8.24,4.16,8.44,6.71,.92,11.54,.4,23.2,.4,35.49-3.86,.25-6.61,.59-9.37,.59-37.51,.03-75.01,.02-113.26,.02v-214.47c5.8,0,11.34,0,16.87,0,30.65,0,61.31,.3,91.95-.16,10.13-.15,14.02,3.17,13.03,13.3-.78,8-.16,16.12-.16,27.03-7.98,0-13.5,0-21.12,0-12.46,0-24.93,.13-37.39-.04-8.48-.12-13.09,3.39-13.03,12.25,.07,9.96,.02,19.92,.02,31.78h68.4Z"/><path class="e" d="M3744.29,1009.72c3.71,1.52,6.44,2.55,9.1,3.73,17.65,7.85,35.38,11.52,53.91,2.5,9.2-4.48,9.59-30.08,.37-34.66-12.44-6.19-24.64-12.86-37.08-19.04-18.03-8.97-28.85-22.09-32.51-43.01-3.49-19.95-1.32-37.22,9.69-54.05,10.49-16.02,26.49-22.95,43.84-25.63,13.93-2.15,28.49-.97,42.7-.08,6.93,.43,13.69,3.57,21.93,5.87v42.88c-8.52-2.56-16.32-5.9-24.43-7.06-9.24-1.32-18.97-2.02-28.1-.57-10.28,1.63-13.58,11.64-13.24,20.1,.39,9.72,7.77,16.76,16.46,21.31,12.97,6.78,26.4,12.74,39.09,20,17.09,9.78,24.25,25.62,25.28,44.88,1.42,26.42-5.71,49.33-28.93,63.85-10.21,6.38-22.53,12.35-34.13,12.87-19.88,.88-40.03-2.14-59.88-4.87-3.46-.48-8.57-7.64-8.49-11.63,.23-11.93,2.65-23.82,4.43-37.37Z"/><path class="e" d="M4551.28,894.7c-9.26-2.95-16.31-4.16-22.37-7.3-27.83-14.44-64.29,7.99-67.09,40.4-1.44,16.72-1.76,32.4,1.25,48.65,3.06,16.5,21.79,40.27,42.56,39.5,15.46-.57,31.02,.96,46.27-12.12,0,17.48,.3,32.03-.25,46.56-.11,2.92-2.93,7.64-5.35,8.27-37.57,9.82-82.4,11.33-114.6-23.68-12.28-13.35-20.86-29.27-22.64-47.94-1.64-17.18-5.73-34.64-4.07-51.51,4.46-45.36,20.48-80.6,73.19-95.15,21.24-5.86,44.95-3.64,66.63,4.47,2.88,1.08,5.98,5.89,6.16,9.13,.71,12.55,.29,25.17,.29,40.72Z"/></g><polygon class="d" points="7488.57 1309.72 0 1281.51 29.22 709.72 7488.57 709.72 7488.57 1309.72"/></g></g></svg>