<svg width="55" height="32" viewBox="0 0 84 50" fill="none" xmlns="http://www.w3.org/2000/svg">
<g clip-path="url(#clip0)">
<path d="M23.5516 18.1598C23.5516 19.1886 23.6628 20.0227 23.8575 20.6345C24.0799 21.2462 24.358 21.9135 24.7472 22.6365C24.8863 22.8589 24.9419 23.0814 24.9419 23.276C24.9419 23.5541 24.775 23.8321 24.4136 24.1102L22.6618 25.278C22.4116 25.4449 22.1613 25.5283 21.9389 25.5283C21.6608 25.5283 21.3827 25.3893 21.1047 25.139C20.7154 24.7219 20.3817 24.277 20.1037 23.8321C19.8256 23.3594 19.5476 22.8311 19.2417 22.1916C17.0728 24.7497 14.3479 26.0288 11.0668 26.0288C8.7311 26.0288 6.86811 25.3615 5.50563 24.0268C4.14314 22.6921 3.448 20.9125 3.448 18.6881C3.448 16.3246 4.28217 14.406 5.97833 12.9601C7.67448 11.5142 9.92675 10.7912 12.7907 10.7912C13.7361 10.7912 14.7093 10.8746 15.7382 11.0137C16.767 11.1527 17.8236 11.3751 18.9358 11.6254V9.59557C18.9358 7.48232 18.4909 6.00862 17.629 5.14664C16.7392 4.28466 15.2377 3.86757 13.0966 3.86757C12.1234 3.86757 11.1224 3.97879 10.0936 4.22905C9.06477 4.4793 8.06376 4.78516 7.09056 5.17444C6.64566 5.36908 6.312 5.48031 6.11735 5.53592C5.92271 5.59153 5.78368 5.61934 5.67246 5.61934C5.28318 5.61934 5.08854 5.34128 5.08854 4.75736V3.39487C5.08854 2.94998 5.14415 2.61631 5.28318 2.42167C5.42221 2.22703 5.67246 2.03239 6.06174 1.83775C7.03495 1.33724 8.20279 0.920155 9.56527 0.586485C10.9278 0.22501 12.3737 0.0581751 13.903 0.0581751C17.2119 0.0581751 19.631 0.808932 21.1881 2.31045C22.7174 3.81196 23.496 6.09203 23.496 9.15067V18.1598H23.5516ZM12.2624 22.3862C13.18 22.3862 14.1254 22.2194 15.1264 21.8857C16.1274 21.5521 17.0172 20.9403 17.768 20.1062C18.2129 19.5778 18.5465 18.9939 18.7134 18.3266C18.8802 17.6592 18.9914 16.8529 18.9914 15.9075V14.7396C18.1851 14.545 17.3231 14.3782 16.4333 14.2669C15.5435 14.1557 14.6815 14.1001 13.8196 14.1001C11.9566 14.1001 10.5941 14.4616 9.6765 15.2123C8.75891 15.9631 8.31401 17.0197 8.31401 18.41C8.31401 19.7169 8.64768 20.6901 9.34283 21.3574C10.0102 22.0526 10.9834 22.3862 12.2624 22.3862V22.3862ZM34.5905 25.3893C34.09 25.3893 33.7563 25.3058 33.5339 25.1112C33.3114 24.9444 33.1168 24.5551 32.9499 24.0268L26.4156 2.53289C26.2488 1.97678 26.1653 1.6153 26.1653 1.42066C26.1653 0.975767 26.3878 0.725514 26.8327 0.725514H29.5576C30.086 0.725514 30.4474 0.808932 30.6421 1.00357C30.8645 1.17041 31.0313 1.55969 31.1982 2.088L35.8696 20.4954L40.2073 2.088C40.3463 1.53188 40.5131 1.17041 40.7356 1.00357C40.958 0.836738 41.3473 0.725514 41.8478 0.725514H44.0723C44.6006 0.725514 44.9621 0.808932 45.1845 1.00357C45.4069 1.17041 45.6016 1.55969 45.7128 2.088L50.1061 20.7179L54.9165 2.088C55.0834 1.53188 55.278 1.17041 55.4726 1.00357C55.6951 0.836738 56.0566 0.725514 56.5571 0.725514H59.143C59.5879 0.725514 59.8382 0.947961 59.8382 1.42066C59.8382 1.55969 59.8103 1.69872 59.7825 1.86555C59.7547 2.03239 59.6991 2.25483 59.5879 2.5607L52.8867 24.0546C52.7199 24.6107 52.5252 24.9722 52.3028 25.139C52.0803 25.3058 51.7189 25.4171 51.2462 25.4171H48.8549C48.3266 25.4171 47.9651 25.3336 47.7426 25.139C47.5202 24.9444 47.3255 24.5829 47.2143 24.0268L42.9044 6.09203L38.6223 23.999C38.4833 24.5551 38.3165 24.9166 38.094 25.1112C37.8716 25.3058 37.4823 25.3893 36.9818 25.3893H34.5905V25.3893ZM70.3209 26.14C68.875 26.14 67.4291 25.9732 66.0388 25.6395C64.6486 25.3058 63.5641 24.9444 62.8412 24.5273C62.3963 24.277 62.0904 23.999 61.9792 23.7487C61.868 23.4985 61.8124 23.2204 61.8124 22.9702V21.5521C61.8124 20.9681 62.0348 20.6901 62.4519 20.6901C62.6187 20.6901 62.7856 20.7179 62.9524 20.7735C63.1192 20.8291 63.3695 20.9403 63.6475 21.0516C64.5929 21.4686 65.6218 21.8023 66.7062 22.0248C67.8184 22.2472 68.9028 22.3584 70.0151 22.3584C71.7668 22.3584 73.1293 22.0526 74.0747 21.4408C75.0201 20.8291 75.5206 19.9393 75.5206 18.7993C75.5206 18.0207 75.2704 17.3812 74.7699 16.8529C74.2694 16.3246 73.324 15.8519 71.9615 15.407L67.9296 14.1557C65.8998 13.5162 64.3983 12.5708 63.4807 11.3195C62.5631 10.0961 62.0904 8.73359 62.0904 7.28768C62.0904 6.11984 62.3407 5.09103 62.8412 4.20124C63.3417 3.31145 64.009 2.53289 64.8432 1.92116C65.6774 1.28163 66.6228 0.808932 67.735 0.475262C68.8472 0.141592 70.0151 0.00256348 71.2385 0.00256348C71.8503 0.00256348 72.4898 0.0303693 73.1015 0.113787C73.7411 0.197204 74.325 0.308427 74.9089 0.419651C75.465 0.55868 75.9933 0.697708 76.4938 0.864543C76.9943 1.03138 77.3836 1.19821 77.6617 1.36505C78.0509 1.58749 78.329 1.80994 78.4958 2.06019C78.6627 2.28264 78.7461 2.5885 78.7461 2.97778V4.28466C78.7461 4.86858 78.5236 5.17444 78.1066 5.17444C77.8841 5.17444 77.5226 5.06322 77.0499 4.84077C75.465 4.11782 73.6854 3.75635 71.7112 3.75635C70.1263 3.75635 68.875 4.0066 68.0131 4.53491C67.1511 5.06322 66.7062 5.86959 66.7062 7.00963C66.7062 7.78819 66.9842 8.45553 67.5404 8.98384C68.0965 9.51215 69.1253 10.0405 70.599 10.5132L74.5474 11.7644C76.5494 12.404 77.9953 13.2937 78.8573 14.4338C79.7193 15.5738 80.1364 16.8807 80.1364 18.3266C80.1364 19.5222 79.8861 20.6067 79.4134 21.5521C78.9129 22.4975 78.2456 23.3316 77.3836 23.999C76.5216 24.6941 75.4928 25.1946 74.2972 25.5561C73.0459 25.9454 71.739 26.14 70.3209 26.14V26.14Z" fill="#F5F5F9"/>
<path d="M75.576 39.6537C66.4279 46.4105 53.1368 49.9975 41.7086 49.9975C25.6924 49.9975 11.2612 44.0748 0.361345 34.2315C-0.500635 33.4529 0.277927 32.3963 1.30674 33.008C13.0964 39.8483 27.6388 43.9914 42.6818 43.9914C52.8309 43.9914 63.981 41.8781 74.2414 37.5404C75.7707 36.8452 77.0775 38.5414 75.576 39.6537Z" fill="#F5F5F9"/>
<path d="M79.3856 35.316C78.2178 33.8145 71.6557 34.593 68.6805 34.9545C67.7907 35.0657 67.6517 34.2872 68.458 33.7033C73.6855 30.0329 82.2774 31.0895 83.2784 32.313C84.2794 33.5642 83.0004 42.1562 78.1066 46.2714C77.3558 46.911 76.6329 46.5773 76.9666 45.7431C78.0788 42.9904 80.5535 36.7897 79.3856 35.316V35.316Z" fill="#F5F5F9"/>
</g>
<defs>
<clipPath id="clip0">
<rect width="83.612" height="50" fill="white"/>
</clipPath>
</defs>
</svg>
