<svg xmlns="http://www.w3.org/2000/svg" viewBox="0 0 1868 393"><defs><style>.cls-1,.cls-2,.cls-3,.cls-4{fill:#fff;}.cls-1{fill-opacity:0.9;}.cls-2{fill-opacity:0.7;}.cls-3{fill-opacity:0.5;}.cls-4{fill-opacity:0.8;}</style></defs><title>Artboard 1</title><g id="Layer_1" data-name="Layer 1"><rect class="cls-1" x="337" y="16" width="34" height="34"/><rect class="cls-1" x="1240" y="16" width="34" height="34"/><rect class="cls-2" x="1619" y="20" width="23" height="23"/><rect class="cls-3" x="1818" y="77" width="23" height="23"/><rect class="cls-3" x="1815" y="347" width="30" height="30"/><rect class="cls-3" x="1622" y="245" width="18" height="18"/><rect class="cls-4" x="1513" y="77" width="23" height="23"/><rect class="cls-4" x="1032" y="346" width="31" height="31"/><rect class="cls-4" x="1714" y="133" width="19" height="19"/><rect class="cls-2" x="454" y="355" width="13" height="13"/><rect class="cls-1" x="1197" y="356" width="13" height="13"/><rect class="cls-2" x="1456" y="349" width="28" height="28"/><rect class="cls-2" x="880" y="26" width="13" height="13"/><rect class="cls-3" x="127" y="75" width="25" height="25"/><rect class="cls-3" x="875" y="347" width="30" height="30"/><rect class="cls-3" x="122" y="345" width="32" height="32"/><rect class="cls-4" x="23" y="133" width="20" height="20"/></g></svg>