<svg height='100px' width='100px'  fill="#f5f5f9" xmlns="http://www.w3.org/2000/svg" data-name="Layer 1" viewBox="0 0 100 100" x="0px" y="0px"><title>Artboard 37</title><path d="M50.17,39H50a11,11,0,0,0-.17,22H50a11,11,0,0,0,.17-22ZM50,55h-.08A5,5,0,0,1,50,45h.08A5,5,0,0,1,50,55Z"></path><path d="M80.69,43.45,78.16,38.9l-3.89-7-2.53-4.55-4.86,1.86L63.83,30.4a24.12,24.12,0,0,0-3.09-1.85l-.41-3.24-.66-5.16-5.2-.08-8-.13-5.2-.08L40.45,25l-.51,3.23A24.14,24.14,0,0,0,36.8,30l-3-1.26-4.8-2-2.67,4.47L22.2,38l-2.67,4.47,4,3.28,2.53,2.05q-.09.91-.1,1.8t0,1.81l-2.59,2-4.14,3.15,2.53,4.55,3.89,7,2.53,4.55,4.86-1.86,3.05-1.17a24.12,24.12,0,0,0,3.09,1.85l.41,3.24.66,5.16,5.2.08,8,.13,5.2.08L59.55,75l.51-3.23A24.14,24.14,0,0,0,63.2,70l3,1.26,4.8,2,2.67-4.47L77.8,62l2.67-4.47-4-3.28L73.9,52.18q.09-.91.1-1.8t0-1.81l2.59-2ZM68,50.28a18,18,0,0,1-.62,4.34l5.27,4.27-4.11,6.86-6.25-2.62a18,18,0,0,1-7.6,4.23l-1.06,6.69-8-.13-.85-6.72a18,18,0,0,1-7.47-4.47L31,65.17l-3.89-7,5.4-4.1a17.43,17.43,0,0,1,.14-8.69l-5.27-4.27,4.11-6.86,6.25,2.62a18,18,0,0,1,7.6-4.23l1.06-6.69,8,.13.85,6.72a18,18,0,0,1,7.47,4.47L69,34.83l3.89,7-5.4,4.1A18,18,0,0,1,68,50.28Z"></path></svg>