<svg height='100px' width='100px'  fill="#f5f5f9" xmlns="http://www.w3.org/2000/svg" data-name="Layer 1" viewBox="0 0 100 100" x="0px" y="0px"><title>Artboard 35</title><path d="M72,19H28a9,9,0,0,0-9,9V72a9,9,0,0,0,9,9h9V75H28a3,3,0,0,1-3-3V41H75v8h6V28A9,9,0,0,0,72,19ZM37,35H25V28a3,3,0,0,1,3-3h9Zm38,0H43V25H72a3,3,0,0,1,3,3Z"></path><path d="M70,55.76,65.76,60l8,8-8,8L70,80.24,80.12,70.12a3,3,0,0,0,0-4.24Z"></path><path d="M52,55.76,41.88,65.88a3,3,0,0,0,0,4.24L52,80.24,56.24,76l-8-8,8-8Z"></path></svg>